####
#
# OBJ File Generated by Meshlab
#
####
# Object cable_connector_palm_E3M5.obj
#
# Vertices: 28
# Faces: 52
#
####
vn -3.138875 2.742431 1.478617
v 23.684111 23.956280 4.347712
vn -1.607120 0.574937 2.118658
v 23.297550 10.860260 27.027411
vn 3.086664 2.742435 1.584716
v 33.682652 23.956280 4.518117
vn 1.533997 0.574950 2.172214
v 33.296101 10.860260 27.197809
vn -3.108462 2.804277 1.360600
v 23.712959 24.870760 2.654866
vn 3.060311 2.804296 1.465752
v 33.711498 24.870750 2.825271
vn -3.105740 2.879947 1.199267
v 23.742649 25.687710 0.912858
vn 3.063047 2.879933 1.304428
v 33.741192 25.687719 1.083287
vn -3.102919 2.946321 1.033935
v 23.773081 26.404530 -0.872668
vn 3.065867 2.946315 1.139069
v 33.771629 26.404539 -0.702237
vn -3.100033 3.003217 0.865105
v 23.804159 27.018909 -2.695956
vn 3.068757 3.003203 0.970228
v 33.802711 27.018909 -2.525551
vn -3.097094 3.050415 0.693298
v 23.835770 27.528870 -4.551155
vn 3.071679 3.050439 0.798426
v 33.834332 27.528860 -4.380750
vn -3.094131 3.087861 0.519073
v 23.867840 27.932751 -6.432298
vn 3.074658 3.087848 0.624224
v 33.866390 27.932739 -6.261892
vn -3.091137 3.115300 0.343033
v 23.900240 28.229259 -8.333321
vn 3.077647 3.115306 0.448180
v 33.898788 28.229259 -8.162904
vn -3.088117 3.132741 0.165723
v 23.932880 28.417450 -10.248100
vn 3.080676 3.132739 0.270865
v 33.931419 28.417450 -10.077680
vn -3.114208 3.140118 0.031796
v 23.965639 28.496719 -12.170460
vn 3.111315 3.140114 0.137905
v 33.964191 28.496719 -12.000040
vn -1.696815 1.828917 -1.558418
v 24.116510 28.610279 -21.022190
vn 1.748939 1.828920 -1.499689
v 34.115051 28.610279 -20.851770
vn -1.557995 -1.286060 -1.863479
v 24.143431 19.133350 -22.601530
vn 1.620605 -1.286062 -1.809303
v 34.141972 19.133350 -22.431110
vn -1.928521 -2.329720 1.040392
v 23.306070 9.994233 26.527470
vn 1.891944 -2.329703 1.105508
v 33.304630 9.994228 26.697870
# 28 vertices, 0 vertices normals

f 1//1 2//2 3//3
f 3//3 2//2 4//4
f 5//5 1//1 6//6
f 6//6 1//1 3//3
f 7//7 5//5 8//8
f 8//8 5//5 6//6
f 9//9 7//7 10//10
f 10//10 7//7 8//8
f 11//11 9//9 12//12
f 12//12 9//9 10//10
f 13//13 11//11 14//14
f 14//14 11//11 12//12
f 15//15 13//13 16//16
f 16//16 13//13 14//14
f 17//17 15//15 18//18
f 18//18 15//15 16//16
f 19//19 17//17 20//20
f 20//20 17//17 18//18
f 21//21 19//19 22//22
f 22//22 19//19 20//20
f 23//23 21//21 24//24
f 24//24 21//21 22//22
f 25//25 23//23 26//26
f 26//26 23//23 24//24
f 27//27 25//25 28//28
f 28//28 25//25 26//26
f 2//2 27//27 4//4
f 4//4 27//27 28//28
f 21//21 23//23 25//25
f 27//27 2//2 25//25
f 25//25 2//2 1//1
f 1//1 5//5 25//25
f 25//25 5//5 7//7
f 25//25 7//7 9//9
f 9//9 11//11 25//25
f 25//25 11//11 13//13
f 25//25 13//13 15//15
f 15//15 17//17 25//25
f 25//25 17//17 19//19
f 25//25 19//19 21//21
f 26//26 24//24 22//22
f 4//4 28//28 3//3
f 3//3 28//28 26//26
f 10//10 8//8 26//26
f 26//26 8//8 6//6
f 26//26 6//6 3//3
f 22//22 20//20 26//26
f 26//26 20//20 18//18
f 26//26 18//18 16//16
f 16//16 14//14 26//26
f 26//26 14//14 12//12
f 26//26 12//12 10//10
# 52 faces, 0 coords texture

# End of File
